{
  "asset": {
    "version": "2.0",
    "generator": "THREE.GLTFExporter"
  },
  "scenes": [
    {
      "nodes": [
        0
      ]
    }
  ],
  "scene": 0,
  "nodes": [
    {
      "children": [
        10
      ],
      "matrix": [
        0.01,
        0,
        0,
        0,
        0,
        0.01,
        0,
        0,
        0,
        0,
        0.01,
        0,
        0,
        0,
        0,
        1
      ]
    },
    {
      "matrix": [
        1,
        0,
        0,
        0,
        0,
        -0.34552178005351364,
        0.9384107307083989,
        0,
        0,
        -0.9384107307083989,
        -0.34552178005351364,
        0,
        0.7088967835597941,
        35.733499846723156,
        40.72681734588096,
        1
      ],
      "name": "Cylinder 2",
      "mesh": 0
    },
    {
      "matrix": [
        1,
        0,
        0,
        0,
        0,
        0.9384107307083898,
        0.3455217800535088,
        0,
        0,
        -0.3455217800535088,
        0.9384107307083898,
        0,
        0.5991657357296845,
        36.0242203926,
        37.546182920203854,
        1
      ],
      "name": "Star",
      "mesh": 1
    },
    {
      "matrix": [
        1,
        0,
        0,
        0,
        0,
        -1,
        1.2246467991473532e-16,
        0,
        0,
        -1.2246467991473532e-16,
        -1,
        0,
        -0.18887543209621072,
        -68.82243850167038,
        0.19891916058259085,
        1
      ],
      "name": "Cylinder",
      "mesh": 2
    },
    {
      "matrix": [
        -0.8660254037844355,
        -0.4999999999999981,
        0,
        0,
        -0.4999999999999981,
        0.8660254037844355,
        0,
        0,
        0,
        0,
        1,
        0,
        -59.18286621024265,
        25.535276403037596,
        -1.2825773009341788,
        1
      ],
      "name": "Cube 3",
      "mesh": 3
    },
    {
      "matrix": [
        0.8660254037844384,
        -0.4999999999999998,
        0,
        0,
        0.4999999999999998,
        0.8660254037844384,
        0,
        0,
        0,
        0,
        1,
        0,
        59.182866210242594,
        26.262197529359923,
        -1.2825773009341788,
        1
      ],
      "name": "Cube 2",
      "mesh": 4
    },
    {
      "matrix": [
        1,
        0,
        0,
        0,
        0,
        1,
        0,
        0,
        0,
        0,
        1,
        0,
        -0.21005233208683194,
        34.23298003609423,
        0,
        1
      ],
      "name": "Cube",
      "mesh": 5
    },
    {
      "matrix": [
        0.9050549963061864,
        0,
        0,
        0,
        0,
        0.9050549963061868,
        0,
        0,
        0,
        0,
        0.9050549963061868,
        0,
        17.27165193334531,
        43.328942665533134,
        12.452328623550954,
        1
      ],
      "name": "trophy",
      "children": [
        1,
        2,
        3,
        4,
        5,
        6
      ]
    },
    {
      "matrix": [
        0.8404094810800161,
        -1.3622519598466276e-8,
        0.541951938930767,
        0,
        0.2196432608366659,
        0.9141918141110408,
        -0.3406026496981498,
        0,
        -0.49544802157224765,
        0.4052817871708079,
        0.768295471096753,
        0,
        -495.4480215722482,
        405.28178717080965,
        768.2954710967534,
        1
      ],
      "camera": 0
    },
    {
      "matrix": [
        1,
        0,
        0,
        0,
        0,
        1,
        0,
        0,
        0,
        0,
        1,
        0,
        0,
        1,
        0,
        1
      ],
      "name": "Default Ambient Light"
    },
    {
      "name": "Scene",
      "children": [
        7,
        8,
        9
      ]
    }
  ],
  "bufferViews": [
    {
      "buffer": 0,
      "byteOffset": 0,
      "byteLength": 31200,
      "target": 34962,
      "byteStride": 12
    },
    {
      "buffer": 0,
      "byteOffset": 31200,
      "byteLength": 31200,
      "target": 34962,
      "byteStride": 12
    },
    {
      "buffer": 0,
      "byteOffset": 62400,
      "byteLength": 20800,
      "target": 34962,
      "byteStride": 8
    },
    {
      "buffer": 0,
      "byteOffset": 83200,
      "byteLength": 30720,
      "target": 34963
    },
    {
      "buffer": 0,
      "byteOffset": 113920,
      "byteLength": 23952,
      "target": 34962,
      "byteStride": 12
    },
    {
      "buffer": 0,
      "byteOffset": 137872,
      "byteLength": 23952,
      "target": 34962,
      "byteStride": 12
    },
    {
      "buffer": 0,
      "byteOffset": 161824,
      "byteLength": 15968,
      "target": 34962,
      "byteStride": 8
    },
    {
      "buffer": 0,
      "byteOffset": 177792,
      "byteLength": 35664,
      "target": 34963
    },
    {
      "buffer": 0,
      "byteOffset": 213456,
      "byteLength": 18720,
      "target": 34962,
      "byteStride": 12
    },
    {
      "buffer": 0,
      "byteOffset": 232176,
      "byteLength": 18720,
      "target": 34962,
      "byteStride": 12
    },
    {
      "buffer": 0,
      "byteOffset": 250896,
      "byteLength": 12480,
      "target": 34962,
      "byteStride": 8
    },
    {
      "buffer": 0,
      "byteOffset": 263376,
      "byteLength": 17280,
      "target": 34963
    },
    {
      "buffer": 0,
      "byteOffset": 280656,
      "byteLength": 35328,
      "target": 34962,
      "byteStride": 12
    },
    {
      "buffer": 0,
      "byteOffset": 315984,
      "byteLength": 35328,
      "target": 34962,
      "byteStride": 12
    },
    {
      "buffer": 0,
      "byteOffset": 351312,
      "byteLength": 17664,
      "target": 34963
    },
    {
      "buffer": 0,
      "byteOffset": 368976,
      "byteLength": 35328,
      "target": 34962,
      "byteStride": 12
    },
    {
      "buffer": 0,
      "byteOffset": 404304,
      "byteLength": 35328,
      "target": 34962,
      "byteStride": 12
    },
    {
      "buffer": 0,
      "byteOffset": 439632,
      "byteLength": 17664,
      "target": 34963
    },
    {
      "buffer": 0,
      "byteOffset": 457296,
      "byteLength": 190464,
      "target": 34962,
      "byteStride": 12
    },
    {
      "buffer": 0,
      "byteOffset": 647760,
      "byteLength": 190464,
      "target": 34962,
      "byteStride": 12
    },
    {
      "buffer": 0,
      "byteOffset": 838224,
      "byteLength": 95232,
      "target": 34963
    }
  ],
  "buffers": [
    {
      "byteLength": 933456,
      "uri": "data:application/octet-stream;base64,"
    }
  ],
  "accessors": [
    {
      "bufferView": 0,
      "componentType": 5126,
      "count": 2600,
      "max": [
        25,
        3,
        25
      ],
      "min": [
        -25,
        -3,
        -25
      ],
      "type": "VEC3"
    },
    {
      "bufferView": 1,
      "componentType": 5126,
      "count": 2600,
      "max": [
        1,
        1,
        1
      ],
      "min": [
        -1,
        -1,
        -1
      ],
      "type": "VEC3"
    },
    {
      "bufferView": 2,
      "componentType": 5126,
      "count": 2600,
      "max": [
        1,
        1
      ],
      "min": [
        0,
        0
      ],
      "type": "VEC2"
    },
    {
      "bufferView": 3,
      "componentType": 5123,
      "count": 15360,
      "max": [
        2599
      ],
      "min": [
        0
      ],
      "type": "SCALAR"
    },
    {
      "bufferView": 4,
      "componentType": 5126,
      "count": 1996,
      "max": [
        15.478342056274414,
        17.736223220825195,
        8
      ],
      "min": [
        -15.478342056274414,
        -17.795406341552734,
        0
      ],
      "type": "VEC3"
    },
    {
      "bufferView": 5,
      "componentType": 5126,
      "count": 1996,
      "max": [
        0.999972403049469,
        0.9999550580978394,
        1
      ],
      "min": [
        -0.999972403049469,
        -0.9999550580978394,
        -1
      ],
      "type": "VEC3"
    },
    {
      "bufferView": 6,
      "componentType": 5126,
      "count": 1996,
      "max": [
        1,
        1
      ],
      "min": [
        0,
        0
      ],
      "type": "VEC2"
    },
    {
      "bufferView": 7,
      "componentType": 5125,
      "count": 8916,
      "max": [
        1995
      ],
      "min": [
        0
      ],
      "type": "SCALAR"
    },
    {
      "bufferView": 8,
      "componentType": 5126,
      "count": 1560,
      "max": [
        39.5,
        10,
        39.5
      ],
      "min": [
        -39.5,
        -10,
        -39.5
      ],
      "type": "VEC3"
    },
    {
      "bufferView": 9,
      "componentType": 5126,
      "count": 1560,
      "max": [
        1,
        1,
        1
      ],
      "min": [
        -1,
        -1,
        -1
      ],
      "type": "VEC3"
    },
    {
      "bufferView": 10,
      "componentType": 5126,
      "count": 1560,
      "max": [
        1,
        1
      ],
      "min": [
        0,
        0
      ],
      "type": "VEC2"
    },
    {
      "bufferView": 11,
      "componentType": 5123,
      "count": 8640,
      "max": [
        1558
      ],
      "min": [
        0
      ],
      "type": "SCALAR"
    },
    {
      "bufferView": 12,
      "componentType": 5126,
      "count": 2944,
      "max": [
        4.945249557495117,
        36.540225982666016,
        8.4375
      ],
      "min": [
        -28.983739852905273,
        -47.62751007080078,
        -8.4375
      ],
      "type": "VEC3"
    },
    {
      "bufferView": 13,
      "componentType": 5126,
      "count": 2944,
      "max": [
        0.9997766017913818,
        0.9986695647239685,
        1
      ],
      "min": [
        -0.999728798866272,
        -0.999999463558197,
        -1
      ],
      "type": "VEC3"
    },
    {
      "bufferView": 14,
      "componentType": 5125,
      "count": 4416,
      "max": [
        2943
      ],
      "min": [
        0
      ],
      "type": "SCALAR"
    },
    {
      "bufferView": 15,
      "componentType": 5126,
      "count": 2944,
      "max": [
        4.945249557495117,
        36.540225982666016,
        8.4375
      ],
      "min": [
        -28.983739852905273,
        -47.62751007080078,
        -8.4375
      ],
      "type": "VEC3"
    },
    {
      "bufferView": 16,
      "componentType": 5126,
      "count": 2944,
      "max": [
        0.9997766017913818,
        0.9986695647239685,
        1
      ],
      "min": [
        -0.999728798866272,
        -0.999999463558197,
        -1
      ],
      "type": "VEC3"
    },
    {
      "bufferView": 17,
      "componentType": 5125,
      "count": 4416,
      "max": [
        2943
      ],
      "min": [
        0
      ],
      "type": "SCALAR"
    },
    {
      "bufferView": 18,
      "componentType": 5126,
      "count": 15872,
      "max": [
        52.53120422363281,
        44.189815521240234,
        52.53120422363281
      ],
      "min": [
        -52.53120422363281,
        -95.212158203125,
        -52.53120422363281
      ],
      "type": "VEC3"
    },
    {
      "bufferView": 19,
      "componentType": 5126,
      "count": 15872,
      "max": [
        1,
        1,
        1
      ],
      "min": [
        -1,
        -1,
        -1
      ],
      "type": "VEC3"
    },
    {
      "bufferView": 20,
      "componentType": 5125,
      "count": 23808,
      "max": [
        15871
      ],
      "min": [
        0
      ],
      "type": "SCALAR"
    }
  ],
  "meshes": [
    {
      "primitives": [
        {
          "mode": 4,
          "attributes": {
            "POSITION": 0,
            "NORMAL": 1,
            "TEXCOORD_0": 2
          },
          "extras": {
            "parameters": {
              "width": 50,
              "radialSegments": 64,
              "heightSegments": 1,
              "openEnded": false,
              "thetaStart": 0,
              "thetaLength": 360,
              "cornerRadius": 1,
              "cornerSegments": 8,
              "hollow": 0.87,
              "depth": 50,
              "height": 6,
              "radiusTop": 25,
              "radiusBottom": 25,
              "type": "CylinderGeometry"
            },
            "type": "CylinderGeometry"
          },
          "indices": 3
        }
      ]
    },
    {
      "primitives": [
        {
          "mode": 4,
          "attributes": {
            "POSITION": 4,
            "NORMAL": 5,
            "TEXCOORD_0": 6
          },
          "extras": {
            "shape": {
              "points": [
                -3.673940397442059e-15,
                20,
                -3.673940397442059e-15,
                20,
                -3.673940397442059e-15,
                20,
                3,
                -3.8190000000000035,
                6.61470203410554,
                -3.8190000000000035,
                6.61470203410554,
                -3.8190000000000035,
                6.61470203410554,
                3,
                -17.320508075688778,
                9.999999999999995,
                -17.320508075688778,
                9.999999999999995,
                -17.320508075688778,
                9.999999999999995,
                3,
                -7.638,
                -9.353852251887485e-16,
                -7.638,
                -9.353852251887485e-16,
                -7.638,
                -9.353852251887485e-16,
                3,
                -17.320508075688775,
                -9.999999999999998,
                -17.320508075688775,
                -9.999999999999998,
                -17.320508075688775,
                -9.999999999999998,
                3,
                -3.8190000000000017,
                -6.614702034105541,
                -3.8190000000000017,
                -6.614702034105541,
                -3.8190000000000017,
                -6.614702034105541,
                3,
                -7.6571373978539e-15,
                -20,
                -7.6571373978539e-15,
                -20,
                -7.6571373978539e-15,
                -20,
                3,
                3.818999999999996,
                -6.6147020341055445,
                3.818999999999996,
                -6.6147020341055445,
                3.818999999999996,
                -6.6147020341055445,
                3,
                17.320508075688767,
                -10.00000000000001,
                17.320508075688767,
                -10.00000000000001,
                17.320508075688767,
                -10.00000000000001,
                3,
                7.638,
                -5.087930077252168e-15,
                7.638,
                -5.087930077252168e-15,
                7.638,
                -5.087930077252168e-15,
                3,
                17.32050807568878,
                9.999999999999988,
                17.32050807568878,
                9.999999999999988,
                17.32050807568878,
                9.999999999999988,
                3,
                3.819000000000005,
                6.614702034105539,
                3.819000000000005,
                6.614702034105539,
                3.819000000000005,
                6.614702034105539,
                3
              ],
              "shapeHoles": [],
              "isClosed": true,
              "roundness": 3
            },
            "parameters": {
              "width": 40,
              "depth": 8,
              "innerRadiusPercent": 38.19,
              "spikes": 6,
              "cornerRadius": 3,
              "angle": 360,
              "extrudeBevelSize": 1,
              "extrudeBevelSegments": 1,
              "extrudeDepth": 0,
              "height": 40,
              "surfaceMaxCount": 100,
              "type": "StarGeometry"
            },
            "type": "StarGeometry"
          },
          "indices": 7
        }
      ]
    },
    {
      "primitives": [
        {
          "mode": 4,
          "attributes": {
            "POSITION": 8,
            "NORMAL": 9,
            "TEXCOORD_0": 10
          },
          "extras": {
            "parameters": {
              "width": 79,
              "radialSegments": 64,
              "heightSegments": 1,
              "openEnded": false,
              "thetaStart": 0,
              "thetaLength": 360,
              "cornerRadius": 1,
              "cornerSegments": 8,
              "hollow": 0,
              "depth": 79,
              "height": 20,
              "radiusTop": 39.5,
              "radiusBottom": 39.5,
              "type": "CylinderGeometry"
            },
            "type": "CylinderGeometry"
          },
          "indices": 11
        }
      ]
    },
    {
      "primitives": [
        {
          "mode": 4,
          "attributes": {
            "POSITION": 12,
            "NORMAL": 13
          },
          "extras": {
            "type": "SubdivGeometry",
            "parameters": {
              "width": 36.060465812683105,
              "height": 85.79612350463867,
              "depth": 18
            }
          },
          "indices": 14
        }
      ]
    },
    {
      "primitives": [
        {
          "mode": 4,
          "attributes": {
            "POSITION": 15,
            "NORMAL": 16
          },
          "extras": {
            "type": "SubdivGeometry",
            "parameters": {
              "width": 36.060465812683105,
              "height": 85.79612350463867,
              "depth": 18
            }
          },
          "indices": 17
        }
      ]
    },
    {
      "primitives": [
        {
          "mode": 4,
          "attributes": {
            "POSITION": 18,
            "NORMAL": 19
          },
          "extras": {
            "type": "SubdivGeometry",
            "parameters": {
              "width": 114.53076171875,
              "height": 139.99021530151367,
              "depth": 114.53076171875
            }
          },
          "indices": 20
        }
      ]
    }
  ],
  "cameras": [
    {
      "type": "orthographic",
      "orthographic": {
        "xmag": 7.68,
        "ymag": 4.13,
        "zfar": 100000,
        "znear": 0
      }
    }
  ]
}