{
  "asset": {
    "version": "2.0",
    "generator": "THREE.GLTFExporter"
  },
  "scenes": [
    {
      "nodes": [
        0
      ]
    }
  ],
  "scene": 0,
  "nodes": [
    {
      "children": [
        8
      ],
      "matrix": [
        0.01,
        0,
        0,
        0,
        0,
        0.01,
        0,
        0,
        0,
        0,
        0.01,
        0,
        0,
        0,
        0,
        1
      ]
    },
    {
      "matrix": [
        1,
        0,
        0,
        0,
        0,
        0.9659258262890664,
        0.2588190451025211,
        0,
        0,
        -0.2588190451025211,
        0.9659258262890664,
        0,
        7.430019378973498,
        7.000374238866471,
        -5.778039234358544,
        1
      ],
      "name": "Rectangle 4",
      "mesh": 0
    },
    {
      "matrix": [
        1,
        0,
        0,
        0,
        0,
        0.9848077530122061,
        0.17364817766693094,
        0,
        0,
        -0.17364817766693094,
        0.9848077530122061,
        0,
        -0.48839370918869923,
        19.269525592675794,
        -11.594863907403465,
        1
      ],
      "name": "Rectangle 3",
      "mesh": 1
    },
    {
      "matrix": [
        1,
        0,
        0,
        0,
        0,
        0.9961946980917455,
        0.08715574274765818,
        0,
        0,
        -0.08715574274765818,
        0.9961946980917455,
        0,
        4.0195840932923375,
        21.12513293673112,
        -19.933717372914543,
        1
      ],
      "name": "Rectangle 2",
      "mesh": 2
    },
    {
      "matrix": [
        1,
        0,
        0,
        0,
        0,
        1,
        0,
        0,
        0,
        0,
        1,
        0,
        -0.9300193789736113,
        -3.8828353881835938,
        -29.723714351654053,
        1
      ],
      "name": "Cube",
      "mesh": 3
    },
    {
      "name": "folder",
      "children": [
        1,
        2,
        3,
        4
      ]
    },
    {
      "matrix": [
        0.9997326783814829,
        -2.1072371006735117e-8,
        0.02312080829439231,
        0,
        0.00023117990027107763,
        0.9999500200491817,
        -0.009995196821220468,
        0,
        -0.02311965250690838,
        0.009997869955184507,
        0.9996827117962573,
        0,
        -40.98148151492684,
        54.14850377181312,
        2266.3268672886447,
        1
      ],
      "camera": 0
    },
    {
      "matrix": [
        1,
        0,
        0,
        0,
        0,
        1,
        0,
        0,
        0,
        0,
        1,
        0,
        0,
        1,
        0,
        1
      ],
      "name": "Default Ambient Light"
    },
    {
      "name": "Scene",
      "children": [
        5,
        6,
        7
      ]
    }
  ],
  "bufferViews": [
    {
      "buffer": 0,
      "byteOffset": 0,
      "byteLength": 11856,
      "target": 34962,
      "byteStride": 12
    },
    {
      "buffer": 0,
      "byteOffset": 11856,
      "byteLength": 11856,
      "target": 34962,
      "byteStride": 12
    },
    {
      "buffer": 0,
      "byteOffset": 23712,
      "byteLength": 7904,
      "target": 34962,
      "byteStride": 8
    },
    {
      "buffer": 0,
      "byteOffset": 31616,
      "byteLength": 15696,
      "target": 34963
    },
    {
      "buffer": 0,
      "byteOffset": 47312,
      "byteLength": 11856,
      "target": 34962,
      "byteStride": 12
    },
    {
      "buffer": 0,
      "byteOffset": 59168,
      "byteLength": 11856,
      "target": 34962,
      "byteStride": 12
    },
    {
      "buffer": 0,
      "byteOffset": 71024,
      "byteLength": 7904,
      "target": 34962,
      "byteStride": 8
    },
    {
      "buffer": 0,
      "byteOffset": 78928,
      "byteLength": 15696,
      "target": 34963
    },
    {
      "buffer": 0,
      "byteOffset": 94624,
      "byteLength": 11856,
      "target": 34962,
      "byteStride": 12
    },
    {
      "buffer": 0,
      "byteOffset": 106480,
      "byteLength": 11856,
      "target": 34962,
      "byteStride": 12
    },
    {
      "buffer": 0,
      "byteOffset": 118336,
      "byteLength": 7904,
      "target": 34962,
      "byteStride": 8
    },
    {
      "buffer": 0,
      "byteOffset": 126240,
      "byteLength": 15696,
      "target": 34963
    },
    {
      "buffer": 0,
      "byteOffset": 141936,
      "byteLength": 102912,
      "target": 34962,
      "byteStride": 12
    },
    {
      "buffer": 0,
      "byteOffset": 244848,
      "byteLength": 102912,
      "target": 34962,
      "byteStride": 12
    },
    {
      "buffer": 0,
      "byteOffset": 347760,
      "byteLength": 51456,
      "target": 34963
    }
  ],
  "buffers": [
    {
      "byteLength": 399216,
      "uri": "data:application/octet-stream;base64,"
    }
  ],
  "accessors": [
    {
      "bufferView": 0,
      "componentType": 5126,
      "count": 988,
      "max": [
        68,
        41.5,
        4
      ],
      "min": [
        -68,
        -41.5,
        0
      ],
      "type": "VEC3"
    },
    {
      "bufferView": 1,
      "componentType": 5126,
      "count": 988,
      "max": [
        1,
        1,
        1
      ],
      "min": [
        -1,
        -1,
        -1
      ],
      "type": "VEC3"
    },
    {
      "bufferView": 2,
      "componentType": 5126,
      "count": 988,
      "max": [
        1,
        1
      ],
      "min": [
        0,
        0
      ],
      "type": "VEC2"
    },
    {
      "bufferView": 3,
      "componentType": 5125,
      "count": 3924,
      "max": [
        987
      ],
      "min": [
        0
      ],
      "type": "SCALAR"
    },
    {
      "bufferView": 4,
      "componentType": 5126,
      "count": 988,
      "max": [
        68,
        41.5,
        4
      ],
      "min": [
        -68,
        -41.5,
        0
      ],
      "type": "VEC3"
    },
    {
      "bufferView": 5,
      "componentType": 5126,
      "count": 988,
      "max": [
        1,
        1,
        1
      ],
      "min": [
        -1,
        -1,
        -1
      ],
      "type": "VEC3"
    },
    {
      "bufferView": 6,
      "componentType": 5126,
      "count": 988,
      "max": [
        1,
        1
      ],
      "min": [
        0,
        0
      ],
      "type": "VEC2"
    },
    {
      "bufferView": 7,
      "componentType": 5125,
      "count": 3924,
      "max": [
        987
      ],
      "min": [
        0
      ],
      "type": "SCALAR"
    },
    {
      "bufferView": 8,
      "componentType": 5126,
      "count": 988,
      "max": [
        68,
        41.5,
        4
      ],
      "min": [
        -68,
        -41.5,
        0
      ],
      "type": "VEC3"
    },
    {
      "bufferView": 9,
      "componentType": 5126,
      "count": 988,
      "max": [
        1,
        1,
        1
      ],
      "min": [
        -1,
        -1,
        -1
      ],
      "type": "VEC3"
    },
    {
      "bufferView": 10,
      "componentType": 5126,
      "count": 988,
      "max": [
        1,
        1
      ],
      "min": [
        0,
        0
      ],
      "type": "VEC2"
    },
    {
      "bufferView": 11,
      "componentType": 5125,
      "count": 3924,
      "max": [
        987
      ],
      "min": [
        0
      ],
      "type": "SCALAR"
    },
    {
      "bufferView": 12,
      "componentType": 5126,
      "count": 8576,
      "max": [
        74.5,
        70.64488220214844,
        62.12307357788086
      ],
      "min": [
        -74.5,
        -61.592567443847656,
        -4.480000019073486
      ],
      "type": "VEC3"
    },
    {
      "bufferView": 13,
      "componentType": 5126,
      "count": 8576,
      "max": [
        1,
        1,
        1
      ],
      "min": [
        -1,
        -0.9994490742683411,
        -1
      ],
      "type": "VEC3"
    },
    {
      "bufferView": 14,
      "componentType": 5125,
      "count": 12864,
      "max": [
        8575
      ],
      "min": [
        0
      ],
      "type": "SCALAR"
    }
  ],
  "meshes": [
    {
      "primitives": [
        {
          "mode": 4,
          "attributes": {
            "POSITION": 0,
            "NORMAL": 1,
            "TEXCOORD_0": 2
          },
          "extras": {
            "shape": {
              "points": [
                -68,
                41.5,
                -68,
                41.5,
                -68,
                41.5,
                14,
                68,
                41.5,
                68,
                41.5,
                68,
                41.5,
                14,
                68,
                -41.5,
                68,
                -41.5,
                68,
                -41.5,
                14,
                -68,
                -41.5,
                -68,
                -41.5,
                -68,
                -41.5,
                14
              ],
              "shapeHoles": [],
              "isClosed": true,
              "roundness": 14
            },
            "parameters": {
              "width": 136,
              "depth": 4,
              "cornerRadius": [
                14,
                14,
                14,
                14
              ],
              "cornerType": 1,
              "extrudeBevelSize": 1,
              "extrudeBevelSegments": 1,
              "extrudeDepth": 0,
              "height": 83,
              "surfaceMaxCount": 100,
              "type": "RectangleGeometry"
            },
            "ui": {
              "enabledIndieCorners": false
            },
            "type": "RectangleGeometry"
          },
          "indices": 3
        }
      ]
    },
    {
      "primitives": [
        {
          "mode": 4,
          "attributes": {
            "POSITION": 4,
            "NORMAL": 5,
            "TEXCOORD_0": 6
          },
          "extras": {
            "shape": {
              "points": [
                -68,
                41.5,
                -68,
                41.5,
                -68,
                41.5,
                14,
                68,
                41.5,
                68,
                41.5,
                68,
                41.5,
                14,
                68,
                -41.5,
                68,
                -41.5,
                68,
                -41.5,
                14,
                -68,
                -41.5,
                -68,
                -41.5,
                -68,
                -41.5,
                14
              ],
              "shapeHoles": [],
              "isClosed": true,
              "roundness": 14
            },
            "parameters": {
              "width": 136,
              "depth": 4,
              "cornerRadius": [
                14,
                14,
                14,
                14
              ],
              "cornerType": 1,
              "extrudeBevelSize": 1,
              "extrudeBevelSegments": 1,
              "extrudeDepth": 0,
              "height": 83,
              "surfaceMaxCount": 100,
              "type": "RectangleGeometry"
            },
            "ui": {
              "enabledIndieCorners": false
            },
            "type": "RectangleGeometry"
          },
          "indices": 7
        }
      ]
    },
    {
      "primitives": [
        {
          "mode": 4,
          "attributes": {
            "POSITION": 8,
            "NORMAL": 9,
            "TEXCOORD_0": 10
          },
          "extras": {
            "shape": {
              "points": [
                -68,
                41.5,
                -68,
                41.5,
                -68,
                41.5,
                14,
                68,
                41.5,
                68,
                41.5,
                68,
                41.5,
                14,
                68,
                -41.5,
                68,
                -41.5,
                68,
                -41.5,
                14,
                -68,
                -41.5,
                -68,
                -41.5,
                -68,
                -41.5,
                14
              ],
              "shapeHoles": [],
              "isClosed": true,
              "roundness": 14
            },
            "parameters": {
              "width": 136,
              "depth": 4,
              "cornerRadius": [
                14,
                14,
                14,
                14
              ],
              "cornerType": 1,
              "extrudeBevelSize": 1,
              "extrudeBevelSegments": 1,
              "extrudeDepth": 0,
              "height": 83,
              "surfaceMaxCount": 100,
              "type": "RectangleGeometry"
            },
            "ui": {
              "enabledIndieCorners": false
            },
            "type": "RectangleGeometry"
          },
          "indices": 11
        }
      ]
    },
    {
      "primitives": [
        {
          "mode": 4,
          "attributes": {
            "POSITION": 12,
            "NORMAL": 13
          },
          "extras": {
            "type": "SubdivGeometry",
            "parameters": {
              "width": 149,
              "height": 133.5240936279297,
              "depth": 68.40742921829224
            }
          },
          "indices": 14
        }
      ]
    }
  ],
  "cameras": [
    {
      "type": "perspective",
      "perspective": {
        "aspectRatio": 1.8595641646489105,
        "yfov": 0.7853981633974483,
        "zfar": 100000,
        "znear": 5
      }
    }
  ]
}